<svg width="31" height="30" viewBox="0 0 31 30" fill="none" xmlns="http://www.w3.org/2000/svg">
<path d="M0.0141287 2.13919C-0.188428 8.8334 1.44047 28.8909 28.0851 29.9982C29.3511 30.0485 30.3977 29.0335 30.3892 27.7752L30.3048 19.7388C30.2964 18.707 29.5621 17.8178 28.5409 17.608L23.0718 16.4756C22.1603 16.2826 21.232 16.6853 20.7424 17.4654C20.0082 18.6315 19.0207 20.2169 18.7928 20.5693C18.7675 20.6112 18.7084 20.6028 18.6578 20.6196C17.2146 21.2068 9.26422 15.5612 9.82969 11.4423C9.85501 11.2745 12.0325 9.87361 13.0115 9.0599C13.653 8.53141 13.8049 7.70931 13.6276 6.90399L12.4798 1.78686C12.2519 0.788597 11.3658 0.075554 10.3361 0.0671652L2.24225 5.52487e-05C1.03535 -0.0083335 0.0478882 0.939595 0.0141287 2.13919Z" fill="#555555"/>
</svg>
